<mxfile host="app.diagrams.net" modified="2020-12-20T08:09:38.247Z" agent="5.0 (Windows NT 10.0; Win64; x64) AppleWebKit/537.36 (KHTML, like Gecko) Chrome/87.0.4280.88 Safari/537.36" etag="7J3UHCAWHVOcmY2b7mYo" version="14.1.1" type="github">
  <diagram id="ArjFegC4DGKFg92p9WUc" name="第 1 页">
    <mxGraphModel dx="1038" dy="580" grid="1" gridSize="10" guides="1" tooltips="1" connect="1" arrows="1" fold="1" page="1" pageScale="1" pageWidth="827" pageHeight="1169" math="0" shadow="0">
      <root>
        <mxCell id="0" />
        <mxCell id="1" parent="0" />
        <mxCell id="v5qa6y6z0RPUsvVrmtMX-1" value="&lt;font style=&quot;font-size: 15px&quot;&gt;clgen&lt;/font&gt;" style="rounded=0;whiteSpace=wrap;html=1;" vertex="1" parent="1">
          <mxGeometry x="364" y="210" width="100" height="200" as="geometry" />
        </mxCell>
        <mxCell id="v5qa6y6z0RPUsvVrmtMX-2" value="" style="shape=flexArrow;endArrow=classic;startArrow=classic;html=1;endWidth=26;endSize=8.47;width=23;" edge="1" parent="1">
          <mxGeometry width="50" height="50" relative="1" as="geometry">
            <mxPoint x="282" y="134" as="sourcePoint" />
            <mxPoint x="538" y="134" as="targetPoint" />
          </mxGeometry>
        </mxCell>
        <mxCell id="v5qa6y6z0RPUsvVrmtMX-3" value="clgen_cr_if" style="edgeLabel;html=1;align=center;verticalAlign=middle;resizable=0;points=[];fontSize=15;" vertex="1" connectable="0" parent="v5qa6y6z0RPUsvVrmtMX-2">
          <mxGeometry x="-0.15" y="-5" relative="1" as="geometry">
            <mxPoint x="5" y="-5" as="offset" />
          </mxGeometry>
        </mxCell>
        <mxCell id="v5qa6y6z0RPUsvVrmtMX-4" value="" style="shape=flexArrow;endArrow=classic;startArrow=classic;html=1;width=34;endSize=6.27;" edge="1" parent="1">
          <mxGeometry width="50" height="50" relative="1" as="geometry">
            <mxPoint x="260" y="420" as="sourcePoint" />
            <mxPoint x="260" y="200" as="targetPoint" />
          </mxGeometry>
        </mxCell>
        <mxCell id="v5qa6y6z0RPUsvVrmtMX-5" value="clgen_ini_if" style="edgeLabel;html=1;align=center;verticalAlign=middle;resizable=0;points=[];rotation=90;fontSize=15;" vertex="1" connectable="0" parent="v5qa6y6z0RPUsvVrmtMX-4">
          <mxGeometry x="0.5327" y="5" relative="1" as="geometry">
            <mxPoint x="5" y="49" as="offset" />
          </mxGeometry>
        </mxCell>
        <mxCell id="v5qa6y6z0RPUsvVrmtMX-6" value="ini-stimulator" style="rounded=0;whiteSpace=wrap;html=1;fontSize=15;" vertex="1" parent="1">
          <mxGeometry x="19" y="220" width="120" height="60" as="geometry" />
        </mxCell>
        <mxCell id="v5qa6y6z0RPUsvVrmtMX-7" value="ini-monitor" style="rounded=0;whiteSpace=wrap;html=1;fontSize=15;" vertex="1" parent="1">
          <mxGeometry x="19" y="330" width="120" height="60" as="geometry" />
        </mxCell>
        <mxCell id="v5qa6y6z0RPUsvVrmtMX-11" style="edgeStyle=orthogonalEdgeStyle;rounded=0;orthogonalLoop=1;jettySize=auto;html=1;exitX=0;exitY=0.5;exitDx=0;exitDy=0;entryX=1;entryY=0.5;entryDx=0;entryDy=0;fontSize=15;" edge="1" parent="1" source="v5qa6y6z0RPUsvVrmtMX-8" target="v5qa6y6z0RPUsvVrmtMX-6">
          <mxGeometry relative="1" as="geometry" />
        </mxCell>
        <mxCell id="v5qa6y6z0RPUsvVrmtMX-8" value="" style="rounded=0;whiteSpace=wrap;html=1;fontSize=15;" vertex="1" parent="1">
          <mxGeometry x="213" y="240" width="30" height="20" as="geometry" />
        </mxCell>
        <mxCell id="v5qa6y6z0RPUsvVrmtMX-10" style="edgeStyle=orthogonalEdgeStyle;rounded=0;orthogonalLoop=1;jettySize=auto;html=1;exitX=0;exitY=0.5;exitDx=0;exitDy=0;entryX=1;entryY=0.5;entryDx=0;entryDy=0;fontSize=15;" edge="1" parent="1" source="v5qa6y6z0RPUsvVrmtMX-9" target="v5qa6y6z0RPUsvVrmtMX-7">
          <mxGeometry relative="1" as="geometry" />
        </mxCell>
        <mxCell id="v5qa6y6z0RPUsvVrmtMX-9" value="" style="rounded=0;whiteSpace=wrap;html=1;fontSize=15;" vertex="1" parent="1">
          <mxGeometry x="213" y="350" width="30" height="20" as="geometry" />
        </mxCell>
        <mxCell id="v5qa6y6z0RPUsvVrmtMX-13" style="edgeStyle=orthogonalEdgeStyle;rounded=0;orthogonalLoop=1;jettySize=auto;html=1;entryX=0;entryY=0.5;entryDx=0;entryDy=0;fontSize=15;" edge="1" parent="1" source="v5qa6y6z0RPUsvVrmtMX-12" target="v5qa6y6z0RPUsvVrmtMX-1">
          <mxGeometry relative="1" as="geometry" />
        </mxCell>
        <mxCell id="v5qa6y6z0RPUsvVrmtMX-12" value="" style="rounded=0;whiteSpace=wrap;html=1;fontSize=15;" vertex="1" parent="1">
          <mxGeometry x="277" y="300" width="30" height="20" as="geometry" />
        </mxCell>
        <mxCell id="v5qa6y6z0RPUsvVrmtMX-14" value="stim" style="text;html=1;align=center;verticalAlign=middle;resizable=0;points=[];autosize=1;fontSize=15;" vertex="1" parent="1">
          <mxGeometry x="160" y="250" width="40" height="20" as="geometry" />
        </mxCell>
        <mxCell id="v5qa6y6z0RPUsvVrmtMX-15" value="mon" style="text;html=1;align=center;verticalAlign=middle;resizable=0;points=[];autosize=1;fontSize=15;" vertex="1" parent="1">
          <mxGeometry x="160" y="360" width="40" height="20" as="geometry" />
        </mxCell>
        <mxCell id="v5qa6y6z0RPUsvVrmtMX-16" value="dut" style="text;html=1;align=center;verticalAlign=middle;resizable=0;points=[];autosize=1;fontSize=15;" vertex="1" parent="1">
          <mxGeometry x="310" y="310" width="40" height="20" as="geometry" />
        </mxCell>
        <mxCell id="v5qa6y6z0RPUsvVrmtMX-17" value="" style="shape=flexArrow;endArrow=classic;startArrow=classic;html=1;width=34;endSize=6.27;" edge="1" parent="1">
          <mxGeometry width="50" height="50" relative="1" as="geometry">
            <mxPoint x="580" y="410" as="sourcePoint" />
            <mxPoint x="580" y="190" as="targetPoint" />
          </mxGeometry>
        </mxCell>
        <mxCell id="v5qa6y6z0RPUsvVrmtMX-18" value="clgen_rsp_if" style="edgeLabel;html=1;align=center;verticalAlign=middle;resizable=0;points=[];rotation=90;fontSize=15;" vertex="1" connectable="0" parent="v5qa6y6z0RPUsvVrmtMX-17">
          <mxGeometry x="0.5327" y="5" relative="1" as="geometry">
            <mxPoint x="5" y="49" as="offset" />
          </mxGeometry>
        </mxCell>
        <mxCell id="v5qa6y6z0RPUsvVrmtMX-21" value="" style="endArrow=classic;html=1;fontSize=15;" edge="1" parent="1">
          <mxGeometry width="50" height="50" relative="1" as="geometry">
            <mxPoint x="410" y="150" as="sourcePoint" />
            <mxPoint x="410" y="210" as="targetPoint" />
          </mxGeometry>
        </mxCell>
        <mxCell id="v5qa6y6z0RPUsvVrmtMX-22" value="clk&amp;amp;rst" style="text;html=1;align=center;verticalAlign=middle;resizable=0;points=[];autosize=1;fontSize=12;" vertex="1" parent="1">
          <mxGeometry x="414" y="170" width="50" height="20" as="geometry" />
        </mxCell>
        <mxCell id="v5qa6y6z0RPUsvVrmtMX-24" value="" style="endArrow=classic;html=1;fontSize=12;" edge="1" parent="1">
          <mxGeometry width="50" height="50" relative="1" as="geometry">
            <mxPoint x="329.5" y="145" as="sourcePoint" />
            <mxPoint x="280" y="240" as="targetPoint" />
            <Array as="points">
              <mxPoint x="330" y="240" />
            </Array>
          </mxGeometry>
        </mxCell>
        <mxCell id="v5qa6y6z0RPUsvVrmtMX-25" value="" style="endArrow=classic;html=1;fontSize=12;" edge="1" parent="1">
          <mxGeometry width="50" height="50" relative="1" as="geometry">
            <mxPoint x="500" y="145" as="sourcePoint" />
            <mxPoint x="560" y="240" as="targetPoint" />
            <Array as="points">
              <mxPoint x="500.5" y="240" />
            </Array>
          </mxGeometry>
        </mxCell>
        <mxCell id="v5qa6y6z0RPUsvVrmtMX-26" value="clk&amp;amp;rst" style="text;html=1;align=center;verticalAlign=middle;resizable=0;points=[];autosize=1;fontSize=12;" vertex="1" parent="1">
          <mxGeometry x="277" y="180" width="50" height="20" as="geometry" />
        </mxCell>
        <mxCell id="v5qa6y6z0RPUsvVrmtMX-27" value="clk&amp;amp;rst" style="text;html=1;align=center;verticalAlign=middle;resizable=0;points=[];autosize=1;fontSize=12;" vertex="1" parent="1">
          <mxGeometry x="500" y="170" width="50" height="20" as="geometry" />
        </mxCell>
        <mxCell id="v5qa6y6z0RPUsvVrmtMX-28" value="" style="rounded=0;whiteSpace=wrap;html=1;fontSize=12;" vertex="1" parent="1">
          <mxGeometry x="542" y="300" width="20" height="20" as="geometry" />
        </mxCell>
        <mxCell id="v5qa6y6z0RPUsvVrmtMX-29" value="" style="rounded=0;whiteSpace=wrap;html=1;fontSize=12;" vertex="1" parent="1">
          <mxGeometry x="598" y="260" width="20" height="20" as="geometry" />
        </mxCell>
        <mxCell id="v5qa6y6z0RPUsvVrmtMX-30" value="" style="rounded=0;whiteSpace=wrap;html=1;fontSize=12;" vertex="1" parent="1">
          <mxGeometry x="598" y="330" width="20" height="20" as="geometry" />
        </mxCell>
      </root>
    </mxGraphModel>
  </diagram>
</mxfile>
